PathFileType	4	(X/Y/Z)	/Users/itak/Documents/Research/Walk-IL/dataset/trc/00420_00012.trc
DataRate	CameraRate	NumFrames	NumMarkers	Units	OrigDataRate	OrigDataStartFrame	OrigNumFrames
100.000000	100.000000	4	53	mm	100.000000	154	617
Frame#	Time	RPSI			LPSI			L3			STRN			T10			C7			CLAV			RBAK			LBAK			LSHO			LUPA			LAEL			LAOL			LWTS			LWPS			LFRA			LIFD			LHPS			LHTS			RSHO			RUPA			RAEL			RAOL			RWTS			RWPS			RFRA			RIFD			RHTS			RHPS			RBHD			LFHD			RFHD			LBHD			LHIP			RHIP			RASI			LASI			LKNE			LTHI			LANK			LTIP			LTOE			LMT1			LMT5			LHEE			RKNE			RTHI			RANK			RTIP			RTOE			RMT1			RMT5			RHEE			
		X1	Y1	Z1	X2	Y2	Z2	X3	Y3	Z3	X4	Y4	Z4	X5	Y5	Z5	X6	Y6	Z6	X7	Y7	Z7	X8	Y8	Z8	X9	Y9	Z9	X10	Y10	Z10	X11	Y11	Z11	X12	Y12	Z12	X13	Y13	Z13	X14	Y14	Z14	X15	Y15	Z15	X16	Y16	Z16	X17	Y17	Z17	X18	Y18	Z18	X19	Y19	Z19	X20	Y20	Z20	X21	Y21	Z21	X22	Y22	Z22	X23	Y23	Z23	X24	Y24	Z24	X25	Y25	Z25	X26	Y26	Z26	X27	Y27	Z27	X28	Y28	Z28	X29	Y29	Z29	X30	Y30	Z30	X31	Y31	Z31	X32	Y32	Z32	X33	Y33	Z33	X34	Y34	Z34	X35	Y35	Z35	X36	Y36	Z36	X37	Y37	Z37	X38	Y38	Z38	X39	Y39	Z39	X40	Y40	Z40	X41	Y41	Z41	X42	Y42	Z42	X43	Y43	Z43	X44	Y44	Z44	X45	Y45	Z45	X46	Y46	Z46	X47	Y47	Z47	X48	Y48	Z48	X49	Y49	Z49	X50	Y50	Z50	X51	Y51	Z51	X52	Y52	Z52	X53	Y53	Z53	

155	1.54	-1540.054077148438	993.1107177734375	-588.006591796875	-1551.830200195312	984.2999877929688	-719.24853515625	-1543.172485351562	1062.1650390625	-652.0400390625	-1307.67333984375	1213.919189453125	-662.8963012695312	-1552.621337890625	1165.393676757812	-656.6293334960938	-1515.397583007812	1414.033447265625	-669.383544921875	-1358.581420898438	1333.576171875	-663.5061645507812	-1557.309814453125	1269.492431640625	-597.6279296875	-1529.074829101562	1375.280395507812	-773.8914794921875	-1442.227905273438	1390.191040039062	-823.0416259765625	-1454.037841796875	1272.380615234375	-894.2452392578125	-1414.717651367188	1074.507446289062	-908.7694702148438	-1476.587280273438	1052.068359375	-855.61181640625	-1315.84375	867.6393432617188	-835.7794189453125	-1348.733520507812	848.6089477539062	-908.437744140625	-1387.347778320312	971.4317016601562	-911.0504150390625	-1302.14013671875	689.8995971679688	-826.1708374023438	-1330.0888671875	764.9304809570312	-893.25048828125	-1287.696044921875	772.2828979492188	-846.856689453125	-1451.709838867188	1393.422241210938	-510.5036010742188	-1457.057739257812	1326.896484375	-450.8305969238281	-1412.880615234375	1066.132568359375	-411.2579650878906	-1446.029418945312	1053.809936523438	-497.1964721679688	-1276.904174804688	858.8690185546875	-463.4598083496094	-1303.842163085938	846.2520751953125	-394.3202209472656	-1378.7822265625	1004.967529296875	-400.2779541015625	-1269.003540039062	686.2366943359375	-463.6520690917969	-1247.630981445312	755.3118896484375	-449.7323608398438	-1293.224365234375	757.8283081054688	-395.7599487304688	-1496.727661132812	1594.999633789062	-582.8114624023438	-1345.9677734375	1617.724365234375	-712.9022827148438	-1365.26806640625	1616.160400390625	-591.631103515625	-1490.21630859375	1594.109985351562	-745.1472778320312	-1470.030883789062	969.64306640625	-836.1892700195312	-1451.096313476562	968.4500122070312	-478.4358215332031	-1323.001708984375	973.8056030273438	-541.1707153320312	-1354.71826171875	965.8374633789062	-801.5800170898438	-1428.647583007812	475.5514221191406	-813.896728515625	-1434.666259765625	617.3327026367188	-826.3071899414062	-1515.226196289062	42.65692520141602	-757.86865234375	-1474.048461914062	244.4556884765625	-798.8448486328125	-1294.601440429688	46.21294784545898	-716.0770874023438	-1373.400390625	45.23038101196289	-678.4047241210938	-1389.917602539062	41.88434219360352	-782.2410888671875	-1546.020751953125	41.4672737121582	-697.2386474609375	-1413.841674804688	477.1776428222656	-498.5314025878906	-1374.593505859375	740.8596801757812	-482.5249938964844	-1460.675170898438	58.42319107055664	-528.1033935546875	-1405.912231445312	351.1976928710938	-514.2285766601562	-1283.959228515625	40.20352172851562	-599.5957641601562	-1362.069946289062	43.75700378417969	-625.7772216796875	-1375.783081054688	49.1442985534668	-527.6886596679688	-1536.113647460938	43.93134689331055	-576.95263671875	
156	1.55	-1539.996459960938	993.11181640625	-588.0374755859375	-1551.75439453125	984.3036499023438	-719.2952880859375	-1543.073486328125	1062.175048828125	-652.091064453125	-1307.483276367188	1213.900634765625	-662.9745483398438	-1552.478393554688	1165.407470703125	-656.66650390625	-1515.1787109375	1414.046752929688	-669.3840942382812	-1358.380737304688	1333.5205078125	-663.5758666992188	-1557.12158203125	1269.50341796875	-597.652587890625	-1528.942016601562	1375.309936523438	-773.9072875976562	-1442.078979492188	1390.19970703125	-823.0794067382812	-1453.919677734375	1272.40185546875	-894.295166015625	-1414.667358398438	1074.515014648438	-908.8438110351562	-1476.557739257812	1052.089965820312	-855.6898193359375	-1315.84423828125	867.6444091796875	-835.8527221679688	-1348.7578125	848.5952758789062	-908.5166015625	-1387.3154296875	971.4292602539062	-911.1300659179688	-1302.296264648438	689.8245849609375	-826.3272094726562	-1330.114135742188	764.903076171875	-893.3466796875	-1287.699462890625	772.3185424804688	-847.0441284179688	-1451.491333007812	1393.392822265625	-510.5364379882812	-1456.8642578125	1326.871337890625	-450.8589477539062	-1412.769897460938	1066.1044921875	-411.2603454589844	-1446.129638671875	1053.792114257812	-497.2322998046875	-1276.807373046875	858.8005981445312	-463.5124206542969	-1303.694702148438	846.1752319335938	-394.3113403320312	-1378.682861328125	1004.938232421875	-400.2885131835938	-1268.918334960938	686.2376708984375	-463.6300659179688	-1247.531982421875	755.2035522460938	-449.7288208007812	-1293.260986328125	757.7498779296875	-395.7621459960938	-1496.4091796875	1594.98974609375	-582.83349609375	-1345.727661132812	1617.62841796875	-712.9747924804688	-1364.9453125	1616.127685546875	-591.6813354492188	-1490.061157226562	1594.139892578125	-745.2073974609375	-1470.019409179688	969.6485595703125	-836.2588500976562	-1451.114379882812	968.4481201171875	-478.4560546875	-1323.001220703125	973.7103271484375	-541.2177124023438	-1354.75244140625	965.7400512695312	-801.6873168945312	-1428.572998046875	475.6024475097656	-813.9280395507812	-1434.607421875	617.321533203125	-826.3992309570312	-1515.2216796875	42.65443420410156	-757.8812255859375	-1473.977294921875	244.4933776855469	-798.8480834960938	-1294.663330078125	46.26336288452148	-716.0851440429688	-1373.407104492188	45.24050140380859	-678.3997192382812	-1389.93017578125	41.88311004638672	-782.242919921875	-1546.011962890625	41.45691680908203	-697.2584838867188	-1413.560302734375	477.1260070800781	-498.4093017578125	-1374.451171875	740.8048095703125	-482.3536682128906	-1460.63671875	58.44240188598633	-528.0438232421875	-1405.703247070312	351.0709533691406	-514.2645263671875	-1284.092163085938	40.27001953125	-599.63232421875	-1362.148193359375	43.80613327026367	-625.8013305664062	-1375.767700195312	49.17607116699219	-527.6725463867188	-1536.06201171875	43.90187835693359	-576.809814453125	
157	1.56	-1539.935302734375	993.1183471679688	-588.0781860351562	-1551.665161132812	984.30322265625	-719.3598022460938	-1542.975830078125	1062.18896484375	-652.1514892578125	-1307.278686523438	1213.87939453125	-663.071533203125	-1552.314208984375	1165.4228515625	-656.7094116210938	-1514.962768554688	1414.06103515625	-669.3947143554688	-1358.154541015625	1333.462280273438	-663.6586303710938	-1556.91845703125	1269.51513671875	-597.68603515625	-1528.80419921875	1375.347534179688	-773.9317626953125	-1441.922973632812	1390.21337890625	-823.1285400390625	-1453.797241210938	1272.430541992188	-894.3582763671875	-1414.605102539062	1074.525268554688	-908.933837890625	-1476.52587890625	1052.116943359375	-855.7781982421875	-1315.821533203125	867.664794921875	-835.9685668945312	-1348.798828125	848.5889282226562	-908.611083984375	-1387.286743164062	971.43310546875	-911.2217407226562	-1302.43310546875	689.76513671875	-826.5202026367188	-1330.1318359375	764.8846435546875	-893.4560546875	-1287.673461914062	772.3720092773438	-847.2529296875	-1451.256103515625	1393.362426757812	-510.5843811035156	-1456.658813476562	1326.845458984375	-450.9031372070312	-1412.646118164062	1066.074829101562	-411.272705078125	-1446.256958007812	1053.773803710938	-497.2807006835938	-1276.686645507812	858.7265625	-463.5763549804688	-1303.549682617188	846.0971069335938	-394.3082580566406	-1378.566528320312	1004.906982421875	-400.3034057617188	-1268.828125	686.233642578125	-463.6193237304688	-1247.453125	755.0624389648438	-449.7224731445312	-1293.282348632812	757.6665649414062	-395.7647399902344	-1496.108032226562	1594.987060546875	-582.8751220703125	-1345.479370117188	1617.546142578125	-713.0647583007812	-1364.601318359375	1616.093627929688	-591.7344970703125	-1489.89794921875	1594.16162109375	-745.2672729492188	-1470.003662109375	969.6566162109375	-836.3478393554688	-1451.102905273438	968.4466552734375	-478.4893188476562	-1322.99462890625	973.60400390625	-541.2719116210938	-1354.779541015625	965.6309814453125	-801.8074951171875	-1428.40771484375	475.6449890136719	-813.9215087890625	-1434.46875	617.2959594726562	-826.4879760742188	-1515.21337890625	42.65622711181641	-757.8948974609375	-1473.850219726562	244.5373992919922	-798.8338012695312	-1294.743286132812	46.3292121887207	-716.0914306640625	-1373.364868164062	45.25979995727539	-678.3800659179688	-1389.941162109375	41.89025497436523	-782.2345581054688	-1546.001708984375	41.44637298583984	-697.2804565429688	-1413.269897460938	477.0491333007812	-498.3177490234375	-1374.294921875	740.7489624023438	-482.1738586425781	-1460.589599609375	58.45771789550781	-527.9697265625	-1405.40283203125	350.9565734863281	-514.3092041015625	-1284.231567382812	40.35997772216797	-599.6693725585938	-1362.245971679688	43.85957336425781	-625.8219604492188	-1375.760131835938	49.21236419677734	-527.656005859375	-1536.033447265625	43.87515640258789	-576.6790161132812	
158	1.57	-1539.867065429688	993.1315307617188	-588.1300048828125	-1551.561645507812	984.298095703125	-719.4436645507812	-1542.88037109375	1062.209228515625	-652.2221069335938	-1307.057006835938	1213.856567382812	-663.1904296875	-1552.127197265625	1165.44091796875	-656.7564086914062	-1514.74853515625	1414.077514648438	-669.4168701171875	-1357.911010742188	1333.409423828125	-663.7575073242188	-1556.703979492188	1269.5283203125	-597.7305297851562	-1528.660278320312	1375.393676757812	-773.965576171875	-1441.76171875	1390.234008789062	-823.1911010742188	-1453.677734375	1272.466552734375	-894.4344482421875	-1414.535888671875	1074.53955078125	-909.040771484375	-1476.493530273438	1052.150634765625	-855.8734741210938	-1315.764038085938	867.7041015625	-836.1412353515625	-1348.8642578125	848.5909423828125	-908.7254028320312	-1387.269653320312	971.4443359375	-911.3270263671875	-1302.52783203125	689.7299194335938	-826.7528686523438	-1330.145629882812	764.8765869140625	-893.5826416015625	-1287.619384765625	772.4367065429688	-847.4794311523438	-1451.002563476562	1393.332885742188	-510.6487731933594	-1456.436645507812	1326.820678710938	-450.9645385742188	-1412.506225585938	1066.045288085938	-411.2987060546875	-1446.382690429688	1053.755981445312	-497.3399963378906	-1276.54345703125	858.6475219726562	-463.6532897949219	-1303.4130859375	846.0202026367188	-394.3134460449219	-1378.427734375	1004.873840332031	-400.3241577148438	-1268.741333007812	686.2171630859375	-463.6254272460938	-1247.394165039062	754.8923950195312	-449.7153625488281	-1293.286376953125	757.580322265625	-395.7709350585938	-1495.825073242188	1594.993530273438	-582.9375	-1345.212890625	1617.479858398438	-713.172119140625	-1364.23486328125	1616.057373046875	-591.7931518554688	-1489.716064453125	1594.17529296875	-745.3267211914062	-1469.9775390625	969.6688842773438	-836.4569702148438	-1451.057983398438	968.447265625	-478.5386352539062	-1322.97705078125	973.4896850585938	-541.3343505859375	-1354.793701171875	965.5191040039062	-801.9403076171875	-1428.133911132812	475.6773681640625	-813.871337890625	-1434.238525390625	617.254638671875	-826.5673217773438	-1515.203002929688	42.66664505004883	-757.9059448242188	-1473.649658203125	244.5841827392578	-798.7937622070312	-1294.828857421875	46.40468978881836	-716.0922241210938	-1373.288330078125	45.2813835144043	-678.3475952148438	-1389.946533203125	41.91157531738281	-782.2164306640625	-1545.991577148438	41.43640899658203	-697.3017578125	-1412.953369140625	476.9533081054688	-498.2582092285156	-1374.127685546875	740.6956787109375	-481.992919921875	-1460.533081054688	58.47058868408203	-527.883544921875	-1405.0009765625	350.8609008789062	-514.36376953125	-1284.378295898438	40.46767425537109	-599.712890625	-1362.356689453125	43.91482162475586	-625.83251953125	-1375.76953125	49.2529411315918	-527.64453125	-1536.02734375	43.84906387329102	-576.5665283203125	
